<svg xmlns="http://www.w3.org/2000/svg" viewBox="0 0 400 600">
    <!-- source: https://www.onlinewebfonts.com/icon/482293 -->
    <g fill="#666">
        <path d="M63.36 137.22c-1.02.94-1.8 2.31-1.8 3.1 0 .73-2.6 58.19-5.78 127.63C50.5 384.1 50 396.88 50 427.63v33.42l1.8 1.74 1.74 1.8h146.25c92.25 0 146.76-.29 147.55-.72 2.24-1.16 3.32-4.7 2.24-7.22-1.16-2.89-2.67-3.61-7.15-3.61h-3.68v-51.98h3.82c3.97-.07 5.5-.8 6.86-3.4.65-1.15-.43-30.45-4.91-128.85-3.18-69.95-5.92-127.98-6.14-128.92a7.84 7.84 0 00-1.8-3.03c-1.45-1.45-2.96-1.45-136.44-1.45H65.08zm32.48 20.72c-.22 6.06-1.37 55.73-2.53 110.3-1.15 54.58-2.38 104.24-2.6 110.23l-.43 11.05H61.62l.3-3.47c.2-1.87 2.66-55.36 5.48-118.89 2.74-63.52 5.2-116.58 5.41-117.88l.36-2.31h23.1zm231.65-6.5c.5 5.34 10.54 229.63 10.54 234.61v3.47h-236.2l.43-11.41c.29-6.2 1.45-56.52 2.6-111.67 1.23-55.23 2.38-104.67 2.6-109.94l.43-9.53H327.06zM113.52 416.6c0 15.59 0 15.59 1.8 17.32.94 1.01 2.46 1.8 3.4 1.8.87 0 5.27-1.22 9.74-2.66l8.16-2.68 8.16 2.68c4.47 1.44 8.88 2.67 9.74 2.67.94 0 2.46-.8 3.4-1.8 1.8-1.74 1.8-1.74 1.8-17.33v-15.53H327.2V453.04H61.55v-51.98h51.97zm34.65-5.13v10.4l-5.77-1.88-5.77-1.88-5.78 1.88-5.77 1.88v-20.8h23.1v10.4z"/>
        <path d="M211.91 199.95c-5.12 1.23-12.2 4.84-15.95 8.02l-3.1 2.67-4.62-.87c-14.8-2.81-27.87 7.07-32.56 24.62-1.95 7.22-1.66 18.26.72 25.62 3.4 10.54 11.7 21.01 20.07 25.27l3.47 1.73v14.87c0 14.73 0 14.8 1.8 16.54l1.73 1.8h36.68c27.72-.07 36.96-.29 37.82-.94 2.53-1.95 2.82-3.9 2.82-18.12V287.1l4.4-2.31c5.56-2.96 13.35-11.2 16.39-17.4 3.32-6.79 4.55-12.2 4.55-20.43 0-16.02-6.72-28.95-17.98-34.43-4.55-2.24-5.27-2.38-12.78-2.38h-7.94l-3.53-2.75c-9.54-7.22-21.37-9.96-31.99-7.44zm19.5 13.07c2.3 1.08 5.99 3.75 8.44 6.2 4.62 4.55 5.7 4.91 9.97 3.11 4.11-1.8 9.24-1.51 13.57.65 7 3.54 11.18 10.83 11.7 20.36.79 15.66-8.3 30.75-20.07 33.2a9.59 9.59 0 00-4.12 2.03c-1.59 1.44-1.66 1.87-1.66 15.8v14.3H191.5v-13.28c0-7.37-.28-14.15-.72-15.16-.72-1.88-1.22-2.17-7.36-4.4-9.96-3.47-17.9-17.48-17.9-31.55 0-17.11 12.63-27.94 25.4-21.88 3.54 1.74 5.64 1.01 9.4-2.96 5.98-6.42 12.7-9.1 21.58-8.66 4.03.22 6.56.8 9.52 2.24z"/>
        <path d="M199.14 237.27a4.33 4.33 0 00-1.88 3.61c0 2.96 5.63 25.2 6.86 27.07 2.17 3.33 7.73 2.6 9.53-1.22.8-1.6.58-3.32-1.66-12.28a481.8 481.8 0 00-3.25-13.06c-1.37-5.27-5.77-7.15-9.6-4.12zM233.79 237.35c-1.52 1.37-2.38 3.9-4.77 13.35-1.58 6.43-2.88 12.64-2.88 13.8 0 4.75 5.41 7.43 8.87 4.32 1.6-1.37 2.46-3.75 5.13-14.58 3.4-13.71 3.46-15.16.29-17.33-2.24-1.58-4.48-1.44-6.64.44z"/>
    </g>
</svg>